<?xml version="1.0" standalone="no"?>
<!DOCTYPE svg PUBLIC "-//W3C//DTD SVG 20010904//EN"
 "http://www.w3.org/TR/2001/REC-SVG-20010904/DTD/svg10.dtd">
<svg version="1.0" xmlns="http://www.w3.org/2000/svg"
 width="600.000000pt" height="600.000000pt" viewBox="0 0 600.000000 600.000000"
 preserveAspectRatio="xMidYMid meet">
<metadata>
Created by potrace 1.11, written by Peter Selinger 2001-2013
</metadata>
<g transform="translate(0.000000,600.000000) scale(0.100000,-0.100000)"
fill="#000000" stroke="none">
<path d="M4609 5396 c-3 -3 -25 -6 -49 -7 -25 -2 -52 -6 -60 -10 -8 -4 -67
-15 -130 -24 -63 -9 -146 -24 -185 -32 -38 -8 -85 -17 -104 -21 -30 -6 -37
-13 -49 -50 -8 -24 -20 -46 -28 -49 -8 -3 -14 -19 -14 -35 0 -28 -22 -119 -39
-163 -18 -45 -33 -91 -39 -115 -3 -14 -8 -27 -11 -30 -11 -8 -51 -80 -51 -91
0 -6 -13 -30 -30 -54 -16 -24 -30 -48 -30 -53 0 -6 -4 -12 -8 -14 -14 -5 -63
-99 -57 -108 3 -5 13 -7 23 -4 16 5 16 5 0 -5 -9 -6 -19 -29 -23 -50 -4 -22
-13 -42 -21 -45 -8 -3 -14 -17 -14 -31 0 -14 -7 -28 -15 -31 -17 -7 -21 -34
-5 -34 19 0 10 -35 -25 -93 -19 -32 -35 -61 -35 -65 0 -14 -63 -157 -80 -182
-9 -14 -24 -41 -34 -60 -9 -19 -32 -64 -51 -98 -19 -35 -35 -68 -35 -74 0 -5
-11 -24 -24 -41 -13 -18 -41 -66 -63 -107 -53 -100 -64 -118 -92 -149 -13 -14
-30 -39 -37 -56 -7 -16 -23 -41 -34 -55 l-21 -25 5 35 c3 19 9 60 15 90 5 30
12 73 16 95 3 22 16 59 27 83 14 29 17 47 10 54 -11 11 14 101 42 153 9 17 16
37 16 45 0 17 35 112 55 150 29 55 55 117 61 149 4 19 23 66 42 105 39 78 39
77 41 107 0 11 5 17 11 14 5 -3 12 7 16 22 4 15 10 33 15 38 4 6 11 26 14 45
6 38 23 78 43 98 6 7 12 18 12 24 0 6 7 19 15 28 8 9 16 38 17 64 2 30 9 53
20 63 10 9 18 25 18 35 0 22 16 56 37 76 7 7 13 22 13 33 0 11 9 29 20 41 11
12 20 28 20 36 0 7 11 28 24 45 13 18 27 42 30 54 4 12 20 33 37 47 31 27 36
42 17 49 -10 4 -10 7 0 18 6 7 12 25 12 40 0 15 7 32 15 39 18 15 20 35 3 24
-6 -4 -32 -8 -57 -9 -61 -3 -65 -4 -58 -11 4 -4 -15 -20 -41 -37 -26 -16 -59
-38 -74 -48 -15 -10 -49 -31 -75 -45 -26 -15 -66 -43 -88 -63 -22 -20 -57 -45
-79 -56 -21 -11 -41 -25 -43 -32 -3 -7 -11 -13 -19 -13 -7 0 -21 -11 -30 -25
-9 -14 -20 -25 -26 -25 -21 0 -78 -59 -78 -81 0 -10 -15 -27 -32 -38 -18 -11
-44 -32 -57 -46 -13 -14 -29 -25 -37 -25 -8 0 -14 -4 -14 -10 0 -5 -16 -16
-35 -24 -19 -8 -35 -20 -35 -25 0 -6 -6 -11 -14 -11 -8 0 -16 -4 -18 -9 -1 -5
-27 -27 -55 -50 -29 -23 -53 -48 -53 -56 0 -9 -6 -12 -17 -8 -11 4 -14 3 -9
-6 8 -13 -109 -135 -179 -187 -22 -16 -71 -59 -109 -96 -39 -38 -76 -68 -83
-68 -7 0 -18 -10 -24 -22 -7 -13 -66 -77 -131 -143 -65 -66 -152 -154 -193
-195 -41 -42 -75 -81 -75 -88 0 -7 -7 -12 -15 -12 -8 0 -15 -5 -15 -10 0 -6
-17 -28 -37 -49 -42 -42 -96 -107 -101 -122 -2 -5 -35 -41 -73 -80 -38 -39
-69 -79 -69 -90 0 -10 -6 -19 -13 -19 -7 0 -21 -12 -32 -27 -11 -14 -47 -59
-80 -99 -33 -40 -71 -89 -85 -109 -14 -20 -42 -57 -62 -81 -21 -25 -38 -52
-38 -60 0 -8 -7 -17 -15 -20 -8 -4 -15 -12 -15 -19 0 -6 -9 -20 -20 -30 -11
-10 -22 -27 -26 -39 -8 -25 -44 -78 -61 -88 -6 -5 -25 -33 -42 -63 -17 -30
-36 -55 -41 -55 -6 0 -10 -7 -10 -16 0 -10 -16 -36 -35 -60 -20 -24 -42 -59
-50 -78 -8 -19 -19 -37 -25 -41 -5 -3 -19 -25 -30 -49 -10 -23 -26 -49 -35
-56 -8 -7 -15 -18 -15 -25 0 -7 -13 -27 -30 -45 -16 -18 -30 -40 -30 -49 0 -9
-9 -27 -20 -41 -11 -14 -20 -32 -20 -41 0 -9 -7 -22 -15 -29 -8 -7 -15 -16
-15 -20 0 -4 -18 -37 -40 -73 -21 -36 -42 -77 -46 -91 -3 -14 -16 -36 -27 -49
-12 -13 -29 -39 -39 -58 -39 -81 -77 -166 -83 -188 -4 -14 -23 -54 -41 -90
-19 -36 -34 -75 -34 -86 0 -31 -55 -130 -70 -127 -8 2 -10 -3 -6 -13 3 -9 -1
-26 -9 -38 -8 -12 -15 -34 -15 -49 0 -15 -8 -35 -18 -45 -27 -26 -81 -164 -86
-218 -3 -25 -9 -60 -15 -78 -21 -69 -32 -142 -21 -145 5 -2 10 -10 10 -18 0
-8 5 -14 11 -14 6 0 8 -9 4 -22 -7 -21 -7 -21 96 -14 57 4 154 8 216 8 90 0
113 3 117 15 5 11 13 13 34 8 15 -4 32 -7 37 -6 106 14 189 24 225 25 39 1 45
-2 42 -18 -3 -18 1 -19 59 -13 34 4 70 7 80 7 13 0 16 5 12 16 -5 13 2 14 48
10 29 -3 58 -2 63 2 6 3 33 7 61 8 27 2 98 5 156 8 82 5 109 3 117 -7 14 -17
72 -10 79 10 3 8 -2 20 -12 27 -17 12 -17 13 4 19 14 3 23 16 27 36 4 17 10
31 14 31 9 0 60 94 60 111 0 8 14 32 30 53 17 22 30 46 30 53 0 8 29 58 64
112 36 54 68 110 71 124 4 15 11 27 16 27 5 0 9 6 9 14 0 8 3 16 8 18 4 2 23
23 42 48 19 25 53 64 75 88 22 24 42 48 45 55 14 31 53 87 61 87 5 0 9 7 9 15
0 9 7 18 15 21 8 4 15 12 15 19 0 7 4 15 9 17 5 2 17 19 27 38 11 20 24 36 29
37 6 1 11 9 13 17 2 8 33 45 69 83 36 37 73 80 82 95 23 36 114 147 122 147
16 2 25 -53 22 -137 -3 -78 -1 -94 13 -99 11 -4 12 -8 4 -13 -9 -6 -9 -13 0
-29 6 -13 12 -56 13 -97 2 -58 5 -74 17 -74 14 0 35 -59 56 -155 4 -16 13 -38
21 -47 9 -9 16 -30 18 -45 1 -15 4 -35 8 -43 9 -24 31 -94 33 -108 1 -7 9 -24
18 -37 9 -13 16 -36 16 -50 0 -14 4 -25 8 -25 4 0 16 -25 25 -55 9 -31 37 -99
61 -153 25 -53 48 -109 51 -124 4 -16 13 -28 19 -28 12 0 22 -17 47 -77 25
-61 33 -72 85 -127 34 -35 61 -56 69 -52 8 3 17 1 20 -4 8 -12 176 -9 193 3 7
5 61 11 120 12 59 1 119 6 135 10 30 8 36 29 11 43 -14 8 -13 11 7 28 18 14
25 31 27 68 2 27 9 65 16 85 24 63 34 95 47 141 7 25 18 56 25 70 20 40 52
139 69 214 8 38 33 102 55 142 122 224 121 223 134 337 1 15 8 33 14 39 7 7
12 22 12 35 0 13 10 29 25 39 29 19 31 29 8 52 -16 16 -16 17 0 20 20 4 22 18
5 25 -8 3 -6 6 5 6 10 1 17 9 17 21 0 11 5 20 10 20 6 0 10 14 10 30 0 17 5
30 10 30 6 0 10 8 11 18 0 9 9 31 20 47 10 17 21 36 24 43 18 44 26 79 28 122
1 14 8 30 16 36 8 6 12 18 8 27 -3 8 0 21 8 27 7 6 16 23 20 37 3 15 15 33 26
41 10 7 19 22 19 33 0 12 9 32 20 46 11 14 20 32 20 39 0 8 4 14 10 14 5 0 7
7 4 15 -4 8 -1 15 7 15 7 0 9 3 6 7 -4 3 2 13 14 21 13 9 19 21 16 34 -4 14 0
22 14 25 18 5 21 9 23 35 1 7 13 24 29 39 15 14 32 41 39 60 6 18 22 49 35 67
13 19 23 41 23 48 0 8 4 14 9 14 13 0 53 79 46 91 -4 5 0 9 7 9 13 1 68 82 68
101 0 5 5 9 10 9 6 0 10 9 10 19 0 11 7 27 16 35 9 9 17 22 18 29 7 31 20 47
38 47 16 0 19 5 16 25 -4 18 0 26 13 30 22 7 25 21 7 28 -7 3 -2 6 12 7 l25 1
-22 18 c-19 16 -20 20 -7 25 8 3 12 2 9 -4 -3 -6 -2 -10 4 -10 13 0 34 38 26
50 -3 5 0 12 6 16 8 5 8 8 -1 14 -8 5 -2 22 20 60 17 29 37 59 45 67 8 8 15
21 15 29 0 7 12 17 26 20 18 5 22 9 13 15 -10 6 -9 12 5 28 11 12 26 21 35 21
14 0 14 2 1 10 -12 8 -10 14 18 36 33 26 40 52 21 71 -13 13 17 86 32 77 5 -3
9 11 9 30 0 23 5 36 13 36 14 0 37 40 37 66 0 8 4 22 9 32 5 9 12 24 16 32 12
31 35 64 35 53 0 -7 5 -12 12 -10 19 4 49 37 43 47 -3 6 10 31 30 56 19 26 40
65 47 88 6 23 17 48 25 57 7 8 13 21 13 27 0 7 5 12 11 12 5 0 8 4 4 10 -3 5
-2 17 4 27 5 10 19 41 32 68 13 28 31 58 39 67 22 25 63 108 120 243 10 23 20
58 19 65 0 3 9 30 21 60 12 30 28 73 34 95 9 29 17 39 29 37 22 -4 22 14 0 27
-15 8 -16 12 -4 34 7 13 11 35 9 48 -5 38 -38 34 -85 -10 -24 -23 -60 -45 -83
-51 -33 -9 -42 -16 -47 -40 -3 -17 -10 -30 -16 -30 -5 0 -35 -26 -66 -58 -63
-65 -107 -102 -120 -102 -5 0 -14 -7 -21 -15 -7 -8 -23 -15 -37 -15 -13 0 -39
-11 -57 -25 -18 -14 -39 -25 -47 -25 -8 0 -19 -4 -24 -8 -6 -5 -26 -15 -45
-23 -19 -7 -59 -28 -89 -46 -30 -18 -61 -33 -70 -33 -8 0 -22 -6 -30 -13 -26
-21 -121 -50 -185 -56 -49 -5 -60 -9 -58 -22 1 -9 -4 -19 -13 -22 -10 -4 -14
-16 -11 -37 2 -17 -5 -47 -15 -67 -11 -21 -19 -45 -19 -55 0 -16 -7 -38 -33
-98 -6 -14 -25 -41 -43 -60 -35 -39 -84 -123 -84 -145 0 -8 -6 -15 -13 -15 -7
0 -33 -30 -57 -67 -25 -38 -56 -79 -70 -93 -14 -14 -36 -39 -51 -56 -14 -17
-36 -34 -50 -38 -13 -3 -39 -25 -57 -49 -19 -24 -46 -51 -62 -62 -15 -10 -34
-33 -42 -49 -8 -20 -45 -53 -103 -93 -49 -34 -115 -84 -145 -111 -50 -45 -190
-147 -190 -138 0 1 -24 -21 -54 -51 -30 -29 -60 -53 -66 -53 -7 0 -29 -13 -49
-29 -47 -37 -81 -54 -81 -42 0 5 4 12 9 15 5 3 48 65 97 137 48 72 96 136 106
142 10 7 18 17 18 24 0 7 5 13 10 13 6 0 10 5 10 10 0 12 15 32 47 62 12 11
25 34 28 49 4 16 11 31 16 34 5 4 9 14 9 24 0 10 21 46 48 79 26 33 69 96 97
139 27 43 66 95 87 117 29 30 35 42 28 56 -8 15 -6 17 11 13 18 -5 20 -3 14
16 -3 11 -3 21 2 21 4 0 17 13 27 27 15 20 16 25 4 21 -8 -4 -15 -1 -15 7 0 7
6 11 13 8 18 -7 72 53 91 100 8 20 19 37 24 37 5 0 9 6 9 14 0 7 7 19 15 26
23 19 43 66 35 81 -9 17 5 59 20 59 5 0 10 11 10 24 0 15 7 26 20 29 11 3 20
12 20 20 0 18 24 71 50 112 10 17 19 35 19 42 1 6 5 22 10 35 5 13 10 28 12
33 1 6 8 21 15 34 7 14 11 28 8 33 -3 4 -1 8 4 8 5 0 15 19 22 43 7 23 16 44
21 47 4 3 11 20 14 38 3 18 9 41 14 50 5 9 17 35 27 57 11 22 22 41 25 43 3 1
3 16 1 32 -3 23 0 30 12 30 21 0 20 5 -6 40 -20 28 -38 37 -49 26z m-76 -138
c-2 -18 -9 -37 -14 -42 -13 -14 -11 -54 4 -59 8 -2 -2 -31 -33 -93 -24 -49
-47 -91 -50 -94 -3 -3 -14 -21 -23 -40 -10 -19 -28 -53 -42 -75 -42 -68 -86
-165 -80 -175 11 -18 -34 -80 -56 -77 -16 2 -24 -9 -40 -53 -25 -72 -98 -214
-143 -281 -20 -30 -36 -59 -36 -66 0 -6 -4 -13 -8 -15 -5 -1 -37 -59 -71 -128
-67 -135 -93 -181 -122 -219 -10 -13 -19 -29 -19 -36 0 -7 -7 -15 -15 -19 -8
-3 -14 -9 -13 -14 4 -11 -114 -192 -124 -192 -5 0 -7 -4 -3 -9 3 -5 -3 -16
-13 -23 -10 -7 -42 -44 -71 -83 -28 -38 -60 -79 -70 -90 -10 -11 -29 -36 -43
-57 -14 -20 -38 -53 -55 -75 -17 -21 -33 -48 -37 -60 -4 -13 -11 -23 -15 -23
-5 0 -6 -11 -3 -25 3 -16 -1 -27 -11 -31 -17 -6 -12 -34 7 -34 6 0 17 9 23 19
8 12 19 17 31 14 12 -3 25 3 33 15 8 11 36 30 63 43 27 12 67 40 89 61 22 21
45 38 51 38 19 0 65 60 59 75 -3 8 0 15 6 15 6 0 11 -6 12 -12 0 -10 2 -10 5
-1 3 7 11 10 19 7 12 -5 55 32 55 48 0 4 8 4 18 1 14 -6 15 -4 5 8 -9 11 -6
20 17 43 16 15 34 25 39 21 6 -3 14 1 17 9 3 9 14 16 24 16 10 0 26 8 36 17
15 16 15 17 -2 24 -17 7 -17 8 4 8 13 1 22 7 22 16 0 14 17 20 48 16 6 -1 12
2 12 7 0 18 41 51 56 45 10 -4 17 1 21 15 3 13 10 19 19 15 10 -4 12 0 8 11
-4 9 -1 16 6 16 14 0 35 18 123 103 33 31 66 57 73 57 8 0 14 6 14 14 0 7 19
30 43 51 91 80 104 94 155 170 57 82 86 118 141 175 33 33 81 116 81 138 0 6
6 17 13 24 28 30 48 79 41 100 -5 17 -3 20 11 14 15 -5 17 -1 13 31 -4 32 1
45 30 81 19 23 42 42 52 42 9 0 31 7 49 16 18 9 44 17 59 19 15 1 74 23 132
48 165 70 194 85 220 107 12 11 29 20 35 20 7 0 18 7 25 15 7 8 19 15 27 15 8
0 27 9 41 21 57 44 252 166 257 161 11 -12 3 -35 -35 -98 -23 -36 -40 -73 -39
-82 3 -24 -32 -94 -63 -129 -20 -22 -98 -170 -98 -185 0 -5 -13 -27 -28 -47
-29 -37 -71 -103 -107 -169 -11 -20 -33 -58 -48 -83 -15 -25 -27 -54 -27 -63
0 -17 -28 -75 -41 -86 -3 -3 -19 -30 -35 -60 -16 -30 -32 -57 -35 -60 -4 -3
-10 -16 -14 -30 -4 -14 -18 -41 -31 -60 -13 -19 -24 -39 -24 -43 0 -5 -13 -26
-28 -46 -16 -20 -32 -44 -35 -53 -4 -10 -11 -18 -16 -18 -5 0 -13 -10 -16 -22
-4 -13 -18 -37 -31 -55 -13 -17 -24 -38 -24 -47 0 -8 -4 -18 -10 -21 -5 -3
-10 -15 -10 -26 0 -11 -7 -22 -15 -25 -8 -4 -13 -10 -10 -14 3 -5 -1 -12 -8
-17 -19 -11 -37 -47 -37 -72 0 -12 -4 -21 -10 -21 -5 0 -10 -6 -10 -12 0 -7
-18 -41 -40 -76 -22 -34 -40 -67 -40 -73 0 -5 -7 -12 -16 -16 -8 -3 -13 -11
-10 -19 3 -7 0 -14 -6 -16 -6 -2 -11 -15 -12 -28 -1 -14 -7 -24 -14 -22 -7 1
-12 -4 -12 -12 0 -7 -9 -24 -20 -38 -13 -18 -16 -28 -8 -36 7 -7 4 -14 -11
-24 -11 -7 -21 -17 -21 -22 0 -5 -13 -31 -30 -58 -16 -26 -30 -54 -30 -61 0
-13 -10 -33 -63 -131 -15 -27 -27 -57 -27 -66 0 -10 -6 -20 -14 -23 -8 -3 -17
-21 -21 -39 -7 -30 -22 -65 -46 -108 -10 -16 -15 -27 -61 -127 -16 -34 -44
-90 -64 -124 -19 -34 -33 -72 -32 -83 2 -15 -2 -20 -14 -18 -19 3 -21 -7 -18
-65 1 -18 -5 -45 -13 -60 -8 -15 -20 -39 -26 -53 -6 -14 -20 -38 -31 -55 -11
-16 -25 -41 -31 -55 -69 -151 -89 -202 -89 -223 0 -13 -7 -30 -15 -37 -9 -7
-14 -19 -11 -26 3 -7 1 -16 -4 -19 -5 -3 -17 -23 -26 -43 -9 -20 -21 -48 -27
-62 -6 -14 -26 -46 -44 -72 -24 -36 -31 -54 -27 -75 7 -34 -27 -159 -62 -231
-14 -29 -28 -71 -31 -93 -5 -34 -3 -39 14 -39 19 0 19 -3 10 -43 -5 -23 -16
-60 -25 -82 -8 -22 -16 -56 -19 -75 -2 -19 -9 -38 -15 -41 -15 -10 -191 -23
-223 -17 -13 3 -46 2 -73 -3 -26 -4 -87 -10 -134 -13 -68 -4 -88 -3 -98 9 -6
8 -9 19 -5 25 4 6 0 19 -9 29 -9 10 -18 31 -19 47 -2 16 -8 38 -14 49 -6 11
-13 37 -17 58 -4 20 -11 37 -16 37 -6 0 -10 6 -10 13 0 7 -16 26 -35 42 -20
17 -35 39 -35 52 0 12 -4 24 -9 27 -5 3 -19 38 -32 78 -12 40 -26 78 -30 83
-10 14 -66 231 -74 288 -4 26 -11 50 -16 53 -5 3 -9 14 -9 24 0 13 -5 17 -15
14 -9 -4 -15 0 -15 10 0 9 5 16 10 16 7 0 7 7 0 20 -6 11 -8 25 -5 30 3 6 3
16 -2 23 -9 14 -10 19 -12 53 -1 17 -8 28 -21 31 -14 4 -20 14 -20 34 0 15 -5
31 -11 34 -6 4 -8 13 -5 21 3 7 0 39 -5 71 -6 32 -12 74 -14 94 -1 19 -7 45
-14 57 -6 11 -7 23 -2 26 13 8 21 59 11 71 -4 6 -10 20 -12 33 -1 12 -6 23
-10 22 -5 0 -21 0 -38 0 -35 0 -94 -55 -155 -144 -22 -32 -52 -73 -67 -91 -16
-18 -28 -37 -28 -41 0 -11 -64 -108 -99 -150 -14 -17 -33 -41 -41 -54 -8 -12
-23 -33 -33 -45 -9 -13 -17 -28 -17 -33 0 -6 -4 -12 -9 -14 -14 -5 -89 -104
-112 -148 -12 -22 -25 -40 -30 -40 -5 0 -9 -6 -9 -12 0 -7 -16 -29 -35 -48
-19 -19 -35 -40 -35 -47 0 -7 -14 -23 -31 -35 -17 -13 -38 -39 -47 -58 -9 -19
-31 -61 -49 -92 -18 -31 -33 -63 -33 -71 0 -9 -10 -28 -23 -44 -12 -15 -29
-41 -37 -58 -8 -16 -19 -37 -25 -45 -7 -8 -17 -34 -23 -56 -7 -23 -19 -47 -27
-54 -8 -7 -15 -18 -15 -25 0 -8 -8 -27 -18 -44 -17 -31 -32 -40 -32 -21 0 13
-87 13 -95 0 -5 -7 -11 -8 -19 -1 -7 6 -26 7 -47 2 -19 -4 -79 -9 -132 -10
-54 -1 -125 -7 -160 -14 -34 -7 -73 -10 -87 -7 -14 3 -40 4 -58 0 -49 -7 -142
0 -142 12 0 6 6 8 13 5 8 -3 20 -1 28 4 8 5 -37 7 -111 6 -69 -1 -134 1 -145
3 -14 4 -20 0 -20 -12 0 -22 -20 -42 -34 -34 -5 4 -8 13 -4 21 6 16 -24 20
-122 15 -27 -2 -84 -3 -125 -4 -71 -1 -75 0 -78 21 -2 13 2 23 8 23 6 0 8 5 5
10 -10 16 14 78 37 100 17 15 19 22 9 34 -9 11 -6 26 14 71 14 32 25 67 25 79
0 12 4 26 8 32 5 5 17 32 26 59 29 81 49 125 57 125 5 0 11 17 14 38 9 53 25
93 49 122 28 34 46 67 46 85 0 8 5 15 11 15 6 0 9 9 6 20 -3 10 -2 20 2 22 4
2 39 66 77 143 38 77 72 142 77 143 4 2 7 10 7 19 0 8 8 27 18 41 23 33 93
171 118 232 10 25 24 51 31 58 7 7 13 18 13 23 0 6 5 7 10 4 6 -3 14 5 19 18
6 14 21 36 36 49 14 13 27 34 30 47 5 29 54 114 72 124 7 4 13 15 13 23 0 14
36 72 52 84 4 3 14 18 22 34 29 56 139 187 153 182 10 -4 12 1 7 18 -4 18 0
27 15 36 12 6 21 17 21 25 0 8 5 15 10 15 6 0 10 -5 10 -11 0 -5 5 -7 10 -4 8
5 7 11 -1 21 -9 11 -8 19 6 34 10 11 26 20 36 20 19 0 41 35 52 80 4 14 20 41
37 60 16 18 30 40 30 47 0 7 10 13 21 13 16 0 20 5 16 20 -3 11 0 20 6 20 7 0
31 20 54 44 27 27 50 42 65 42 15 -1 26 7 33 22 5 12 16 22 23 22 8 0 12 6 9
14 -3 8 1 20 9 26 8 7 14 20 14 30 0 10 9 20 20 23 14 4 18 10 14 22 -5 12 -2
16 12 13 12 -2 19 3 19 14 0 21 12 33 33 33 9 0 16 6 14 13 -1 6 2 12 7 12 5
0 12 12 15 26 5 19 11 24 26 19 22 -7 26 5 8 23 -9 9 -6 12 15 12 17 0 27 5
27 15 0 8 5 15 11 15 14 0 63 50 72 73 8 21 -6 22 -27 1 -9 -8 -16 -11 -16 -6
0 17 37 43 53 36 18 -6 57 28 57 51 0 8 5 15 11 15 6 0 9 9 6 20 -3 10 1 24 9
31 10 8 14 8 14 0 0 -6 7 -11 15 -11 8 0 15 5 15 10 0 6 5 10 10 10 14 0 69
62 70 78 0 6 7 12 15 12 9 0 18 7 21 15 4 8 10 12 15 10 5 -3 11 6 15 20 3 14
10 25 14 25 11 0 247 238 254 256 3 9 15 18 26 21 11 3 20 9 20 13 0 5 13 21
30 37 17 15 30 33 30 38 0 6 9 11 20 12 21 2 80 57 80 74 0 5 9 9 20 9 13 0
20 7 20 20 0 13 7 20 19 20 11 0 23 9 26 20 3 11 11 20 16 20 5 0 27 16 49 36
22 20 40 32 40 28 1 -5 6 1 13 13 17 29 120 113 141 113 9 0 16 6 16 13 0 15
127 135 152 142 9 4 26 17 37 31 10 13 24 24 30 24 7 0 23 12 36 28 13 15 25
21 25 15 0 -7 -5 -13 -11 -13 -5 0 -7 -4 -4 -10 4 -6 15 -2 27 9 11 11 17 24
14 29 -7 11 36 42 73 52 14 3 26 12 26 20 0 13 52 37 61 28 2 -3 -14 -38 -36
-78 -22 -40 -40 -74 -40 -76 0 -2 -18 -31 -40 -65 -22 -34 -40 -67 -40 -74 0
-10 -41 -103 -60 -135 -5 -8 -19 -33 -30 -55 -11 -22 -27 -51 -35 -65 -8 -14
-15 -33 -15 -42 0 -10 -4 -18 -10 -18 -5 0 -12 -12 -16 -27 -3 -16 -17 -52
-30 -80 -14 -29 -27 -67 -30 -85 -4 -18 -13 -38 -21 -45 -8 -6 -12 -16 -8 -22
3 -6 -1 -11 -9 -11 -9 0 -16 -9 -16 -20 0 -11 -4 -28 -9 -38 -12 -21 -21 -46
-37 -97 -32 -104 -88 -251 -100 -261 -7 -6 -15 -25 -16 -43 -1 -18 -6 -35 -10
-37 -4 -3 -8 -14 -8 -25 0 -10 -4 -27 -9 -37 -14 -26 -24 -56 -22 -66 1 -4 -3
-14 -9 -20 -5 -7 -8 -15 -5 -18 3 -2 -2 -40 -11 -84 -8 -43 -17 -95 -19 -114
-12 -100 -24 -162 -35 -175 -10 -12 -9 -16 2 -20 24 -9 23 -84 -2 -107 -21
-20 -19 -38 4 -38 10 0 13 -17 11 -70 -2 -60 6 -92 20 -78 2 2 7 42 10 88 7
82 34 165 61 182 14 9 114 154 114 165 0 5 8 16 18 25 35 34 47 53 44 73 -2
11 9 38 23 59 14 21 36 59 47 85 12 25 25 48 28 51 9 8 117 192 131 225 8 17
16 32 20 35 14 11 49 76 49 91 0 9 6 22 14 28 8 7 17 24 21 39 4 15 10 29 14
32 16 12 51 83 51 105 0 13 4 26 9 30 6 3 9 13 9 23 -1 13 86 207 133 294 5
10 9 23 9 29 0 6 8 23 18 37 25 37 64 175 76 274 1 10 18 50 38 90 47 97 58
125 58 148 0 11 6 21 13 22 35 4 43 3 52 -8 8 -9 42 -5 140 16 72 15 153 28
182 29 l51 1 -5 -32z m-343 -928 c0 -5 -4 -10 -10 -10 -5 0 -10 5 -10 10 0 6
5 10 10 10 6 0 10 -4 10 -10z m-96 -164 c-3 -9 -10 -16 -15 -16 -5 0 -4 9 3
20 14 22 21 20 12 -4z m1139 -305 c-3 -11 -11 -22 -19 -25 -17 -7 -18 -1 -2
24 16 25 28 26 21 1z m-263 -485 c0 -3 -4 -8 -10 -11 -5 -3 -10 -1 -10 4 0 6
5 11 10 11 6 0 10 -2 10 -4z m-2205 -1085 c-7 -23 -25 -29 -25 -8 0 14 21 39
28 33 2 -3 1 -14 -3 -25z m1370 -600 c-8 -17 -15 -33 -15 -36 -1 -18 -18 -47
-23 -38 -4 6 6 35 21 66 15 30 28 52 30 47 2 -5 -4 -22 -13 -39z m-67 -161
c-14 -22 -24 -19 -15 5 4 8 11 15 17 15 6 0 6 -7 -2 -20z m-3418 -701 c0 -5
-5 -7 -11 -4 -6 4 -17 -1 -25 -11 -13 -16 -15 -16 -10 -2 3 9 0 19 -7 22 -7 2
3 5 21 5 17 1 32 -4 32 -10z m-60 -19 c0 -5 -2 -10 -4 -10 -3 0 -8 5 -11 10
-3 6 -1 10 4 10 6 0 11 -4 11 -10z"/>
<path d="M2889 4012 c-30 -21 -61 -36 -69 -35 -16 4 -89 -69 -175 -172 -28
-33 -63 -71 -80 -84 -16 -14 -76 -73 -132 -131 -136 -139 -133 -136 -133 -144
0 -4 -6 -14 -12 -21 -7 -8 -19 -21 -26 -29 -6 -9 -18 -13 -26 -10 -8 3 -19 -8
-29 -28 -9 -18 -29 -47 -44 -65 -16 -18 -42 -52 -60 -75 -17 -24 -61 -74 -97
-111 -36 -38 -66 -73 -66 -78 0 -5 -11 -11 -25 -15 -25 -6 -91 -107 -80 -124
3 -5 -4 -11 -15 -15 -12 -4 -20 -15 -20 -28 0 -13 -8 -30 -17 -38 -28 -25 -47
-51 -65 -92 -10 -20 -22 -37 -28 -37 -5 0 -10 -7 -10 -16 0 -9 -13 -33 -29
-53 -16 -21 -33 -49 -36 -63 -4 -15 -22 -50 -41 -80 -19 -29 -37 -64 -41 -78
-3 -14 -11 -32 -17 -40 -24 -31 -48 -82 -42 -87 3 -4 -1 -17 -10 -31 -9 -13
-18 -39 -20 -58 -4 -28 -1 -34 15 -34 11 0 23 -5 26 -10 4 -6 11 -7 18 -3 7 4
4 9 -7 13 -16 5 -16 8 8 23 14 10 26 13 26 8 0 -12 54 3 86 24 13 8 29 15 35
15 6 0 43 16 80 35 38 19 78 35 89 35 10 0 24 8 29 18 10 16 10 16 11 0 0 -24
12 -23 28 2 7 11 19 20 26 20 8 0 44 16 80 35 36 19 68 35 71 35 3 0 28 11 55
25 28 14 50 23 50 21 0 -10 65 18 84 36 11 10 25 18 32 18 6 0 17 6 23 14 7 8
27 17 46 20 19 4 35 10 35 14 0 5 17 14 38 21 20 8 48 22 62 31 14 10 36 20
50 24 73 21 145 62 148 85 2 12 10 21 17 21 24 0 39 42 37 105 -5 111 16 358
31 366 10 6 13 28 12 76 -2 66 5 105 27 150 6 11 8 27 6 35 -3 7 1 27 9 45 7
18 13 46 13 63 0 20 5 30 15 30 12 0 14 4 7 16 -11 19 5 89 55 243 18 57 33
112 33 121 0 10 10 24 22 32 20 13 21 17 9 32 -19 23 -31 20 -92 -22z m-27
-90 c-7 -5 -19 -40 -26 -78 -8 -38 -21 -93 -31 -122 -9 -29 -13 -57 -9 -63 3
-6 -1 -18 -10 -27 -8 -10 -17 -45 -20 -82 -3 -36 -8 -76 -10 -90 -3 -14 -11
-61 -19 -105 -9 -49 -11 -87 -6 -97 5 -10 5 -26 -1 -40 -10 -24 -32 -299 -30
-382 1 -51 -15 -77 -57 -90 -25 -8 -52 -36 -34 -36 6 0 11 -5 11 -12 0 -6 -3
-8 -6 -5 -4 4 -19 0 -33 -7 -58 -31 -90 -39 -106 -26 -10 9 -15 9 -15 1 0 -6
5 -11 12 -11 22 0 -11 -24 -35 -25 -12 -1 -40 -13 -62 -27 -65 -41 -105 -59
-105 -48 0 5 -4 10 -10 10 -5 0 -9 -5 -7 -12 1 -6 -24 -26 -55 -44 -32 -18
-58 -31 -58 -29 0 2 -28 -12 -62 -32 -35 -19 -110 -51 -168 -70 -58 -19 -111
-39 -118 -45 -7 -6 -27 -11 -45 -10 -32 1 -61 -14 -52 -28 4 -7 -83 -49 -132
-64 -29 -9 -30 7 -2 35 23 23 73 155 64 169 -3 5 3 22 13 37 54 78 152 231
152 237 0 12 27 35 34 29 3 -4 6 0 6 9 0 19 30 81 44 90 38 25 56 43 56 54 0
8 5 14 10 14 6 0 10 7 10 15 0 17 62 108 100 145 14 14 38 44 55 65 16 22 42
53 57 69 16 16 28 32 28 36 0 4 23 32 51 61 28 30 58 66 67 82 9 15 24 27 34
27 10 0 21 8 25 18 7 19 64 95 75 100 4 2 23 26 43 53 19 27 42 49 50 49 8 0
15 9 15 20 0 11 4 20 9 20 5 0 11 9 14 20 3 13 11 18 20 14 9 -3 18 2 21 13 4
10 27 33 51 52 25 18 45 37 45 42 0 5 7 9 15 9 9 0 20 11 25 25 5 14 13 25 17
25 5 0 25 16 47 35 21 19 43 35 50 35 7 0 7 -3 -2 -8z m-1362 -1742 c0 -4 -8
-10 -19 -13 -14 -3 -17 0 -14 14 5 17 33 16 33 -1z"/>
<path d="M2510 2680 c0 -5 5 -10 11 -10 5 0 7 5 4 10 -3 6 -8 10 -11 10 -2 0
-4 -4 -4 -10z"/>
<path d="M4601 3643 c-7 -3 -22 -14 -33 -25 -10 -10 -24 -16 -30 -12 -6 4 -8
3 -4 -4 3 -6 2 -13 -4 -17 -5 -3 -10 0 -10 7 -1 10 -4 9 -13 -2 -7 -9 -20 -14
-29 -12 -10 2 -18 -2 -18 -8 0 -6 5 -8 10 -5 6 3 10 1 10 -4 0 -6 -10 -11 -23
-11 -23 0 -34 -7 -109 -67 -22 -18 -43 -33 -47 -33 -8 0 -40 -25 -81 -64 -14
-13 -57 -39 -97 -58 -40 -20 -69 -38 -66 -42 4 -3 1 -6 -5 -6 -6 0 -26 -14
-44 -31 -18 -17 -52 -40 -76 -51 -40 -19 -63 -35 -111 -78 -9 -8 -47 -35 -84
-60 -37 -25 -67 -48 -67 -52 0 -5 -5 -8 -10 -8 -6 0 -37 -19 -71 -42 -33 -24
-72 -49 -87 -57 -15 -8 -53 -31 -85 -53 -32 -21 -65 -38 -72 -38 -8 0 -17 -5
-20 -10 -3 -6 -25 -19 -48 -29 -48 -23 -127 -94 -127 -115 0 -7 -9 -16 -21
-19 -19 -5 -20 -10 -14 -124 9 -146 11 -174 18 -193 16 -42 41 -137 38 -148
-1 -8 3 -20 10 -28 6 -7 9 -20 6 -29 -4 -8 -2 -17 4 -20 5 -4 7 -11 4 -16 -4
-5 1 -16 9 -25 21 -20 20 -41 -1 -47 -17 -4 -17 -5 0 -6 9 0 18 -9 19 -18 2
-25 4 -36 11 -53 3 -8 14 -42 23 -75 9 -33 25 -78 36 -99 11 -22 21 -49 23
-60 1 -12 17 -64 34 -117 26 -75 43 -107 77 -145 25 -27 44 -55 43 -64 -3 -21
11 -51 34 -77 11 -13 17 -23 12 -23 -4 0 5 -12 20 -26 27 -24 29 -25 41 -9 7
9 11 34 9 54 -2 23 3 42 13 54 9 10 16 34 16 53 0 22 4 33 11 30 7 -2 18 0 25
4 11 7 11 11 1 24 -8 9 -9 16 -3 16 5 0 17 12 27 26 14 22 15 28 4 35 -12 7
-11 9 1 10 8 1 18 1 23 0 4 0 7 12 7 29 0 16 5 30 10 30 6 0 10 8 10 19 0 10
7 24 15 31 8 7 13 16 10 20 -2 4 5 16 16 26 11 10 18 23 15 30 -3 7 4 20 15
30 10 9 19 23 19 30 0 7 12 17 28 22 27 10 27 10 3 11 -24 1 -24 1 -5 16 10 8
16 15 12 15 -4 0 4 12 17 26 13 14 29 41 35 60 6 19 15 34 19 34 12 0 33 69
26 89 -4 14 0 23 13 30 23 12 62 75 62 100 0 26 23 71 38 71 6 0 12 5 12 11 0
5 -4 7 -10 4 -5 -3 -10 1 -10 9 0 9 4 16 9 16 5 0 11 11 15 23 3 13 15 36 28
52 32 41 58 95 65 138 4 28 11 39 30 43 16 4 21 10 14 18 -11 13 -3 66 10 66
5 0 9 7 9 15 0 8 3 14 8 14 21 -4 31 3 26 16 -3 8 5 31 18 52 31 51 57 110 51
116 -7 7 27 77 38 77 4 0 7 18 4 40 -2 24 1 45 9 53 7 7 16 25 20 41 4 15 15
30 25 33 12 3 18 15 19 35 0 16 8 40 17 54 8 13 12 24 9 24 -4 0 0 8 8 18 17
20 48 126 48 165 0 14 5 29 10 32 8 5 8 11 0 20 -8 9 -7 17 3 26 15 16 28 44
34 73 2 11 8 25 13 31 6 7 6 15 -1 22 -8 8 -6 15 10 25 32 20 27 35 -8 21z
m-109 -146 c-5 -7 -12 -32 -16 -56 -4 -24 -17 -67 -30 -95 -13 -28 -36 -82
-51 -121 -16 -38 -36 -89 -47 -112 -10 -23 -18 -47 -18 -52 0 -6 -4 -11 -8
-11 -5 0 -7 -13 -4 -28 2 -17 -2 -35 -11 -44 -9 -8 -22 -31 -31 -52 -8 -20
-20 -36 -27 -36 -12 0 -38 -29 -39 -42 0 -5 8 -8 18 -9 14 0 13 -2 -4 -9 -12
-5 -25 -25 -33 -51 -7 -24 -16 -51 -19 -59 -8 -24 -11 -32 -22 -78 -15 -62
-81 -222 -91 -222 -5 0 -9 -7 -9 -16 0 -9 -9 -28 -19 -43 -11 -15 -21 -40 -23
-56 -2 -16 -18 -45 -36 -64 -18 -20 -37 -46 -42 -58 -5 -13 -16 -23 -24 -23
-11 0 -15 -10 -14 -37 1 -20 -4 -39 -10 -41 -7 -2 -12 -9 -12 -16 0 -8 -9 -25
-20 -39 -11 -14 -20 -35 -20 -46 0 -12 -6 -21 -15 -21 -8 0 -15 -9 -15 -20 0
-12 -8 -35 -17 -53 -9 -18 -17 -34 -18 -37 0 -3 -11 -23 -24 -45 -14 -22 -33
-56 -44 -75 -11 -19 -30 -49 -43 -67 -13 -17 -24 -37 -24 -43 0 -6 -25 -46
-55 -89 -30 -43 -56 -90 -57 -104 -3 -36 -24 -17 -33 30 -4 21 -14 43 -23 50
-9 7 -12 12 -7 11 6 -2 11 2 13 7 1 6 -3 10 -9 10 -13 0 -40 68 -44 110 -3 36
-45 139 -67 165 -9 10 -18 31 -19 47 -2 15 -8 34 -13 42 -6 7 -11 30 -12 50
-1 20 -7 50 -14 66 -7 17 -14 35 -16 40 -3 15 -43 216 -48 245 -3 14 -5 25 -5
25 -2 0 -11 209 -11 247 0 20 -7 43 -16 52 -13 14 -14 16 0 16 8 0 19 7 24 17
6 9 16 14 26 10 9 -4 26 3 42 18 14 13 31 22 39 19 7 -3 19 2 28 10 9 9 21 16
27 16 7 0 37 26 69 58 60 61 77 73 129 96 18 9 54 33 80 56 27 22 58 40 69 40
12 0 23 7 27 15 3 8 12 15 21 15 8 0 15 7 15 16 0 8 5 12 10 9 6 -3 13 1 16 9
3 9 10 16 15 16 4 0 21 12 36 26 32 29 191 134 204 134 4 0 12 6 16 14 4 8 11
15 15 16 21 2 38 13 38 24 0 14 48 41 68 37 6 -1 12 5 12 14 0 9 5 13 10 10 6
-3 10 -2 10 3 0 5 12 15 28 23 15 8 35 22 46 31 10 9 32 24 50 32 17 9 27 16
23 16 -5 0 -5 5 -2 11 5 6 12 4 21 -8 11 -14 14 -14 12 -3 -4 28 13 60 32 60
10 0 22 5 25 10 4 6 11 8 16 4 6 -3 6 -10 1 -17z m-1338 -939 c-9 -14 -23 2
-17 18 4 12 8 13 14 3 4 -7 5 -17 3 -21z m403 -1240 c-3 -8 -6 -5 -6 6 -1 11
2 17 5 13 3 -3 4 -12 1 -19z"/>
<path d="M1530 3060 c0 -5 5 -10 10 -10 6 0 10 5 10 10 0 6 -4 10 -10 10 -5 0
-10 -4 -10 -10z"/>
<path d="M3280 3039 c0 -5 5 -7 10 -4 6 3 10 8 10 11 0 2 -4 4 -10 4 -5 0 -10
-5 -10 -11z"/>
<path d="M4231 2594 c0 -11 3 -14 6 -6 3 7 2 16 -1 19 -3 4 -6 -2 -5 -13z"/>
<path d="M4198 2523 c7 -3 16 -2 19 1 4 3 -2 6 -13 5 -11 0 -14 -3 -6 -6z"/>
<path d="M4115 2360 c-3 -5 -2 -10 4 -10 5 0 13 5 16 10 3 6 2 10 -4 10 -5 0
-13 -4 -16 -10z"/>
<path d="M2144 2142 c-6 -4 -13 -15 -17 -24 -4 -11 -18 -19 -34 -20 -15 0 -34
-2 -41 -2 -7 -1 -24 -11 -37 -24 -12 -12 -30 -22 -39 -22 -9 0 -16 -4 -16 -10
0 -5 -7 -10 -15 -10 -9 0 -33 -11 -55 -25 -22 -14 -44 -25 -50 -25 -5 0 -10
-4 -10 -10 0 -5 -7 -10 -16 -10 -8 0 -21 -6 -29 -12 -28 -28 -56 -48 -64 -48
-12 0 -135 -81 -139 -91 -2 -5 -9 -9 -17 -9 -12 0 -47 -20 -172 -98 -28 -18
-54 -39 -57 -48 -4 -10 -13 -13 -28 -9 -20 5 -21 4 -7 -6 15 -11 15 -14 0 -31
-19 -22 -35 -24 -27 -3 4 13 2 14 -14 5 -23 -12 -25 -21 -9 -37 12 -12 -32
-90 -56 -100 -8 -3 -15 -13 -15 -23 0 -10 -14 -48 -30 -84 -17 -37 -30 -72
-29 -79 3 -16 -11 -65 -27 -96 -8 -14 -14 -34 -14 -43 0 -23 -20 -108 -30
-129 -4 -8 -8 -50 -9 -92 -1 -75 -1 -77 23 -77 14 0 29 7 34 16 5 8 23 16 40
16 22 1 37 9 48 26 10 15 39 49 66 76 26 28 48 54 48 59 0 4 10 7 23 7 15 0
18 3 9 9 -10 6 -7 12 12 24 13 9 32 30 42 46 10 16 26 32 37 35 10 2 16 9 13
15 -4 5 0 13 7 18 8 4 18 15 23 24 5 9 44 54 87 100 128 139 154 169 168 197
21 42 110 162 120 162 5 0 9 6 9 14 0 12 70 110 90 126 3 3 19 23 35 45 17 22
32 42 35 45 55 52 170 205 170 224 0 17 -18 21 -36 8z m-214 -227 c0 -15 -16
-49 -35 -71 -5 -7 -35 -43 -65 -80 -30 -37 -72 -84 -92 -104 -21 -20 -38 -42
-38 -48 0 -7 -9 -12 -19 -12 -13 0 -21 -9 -26 -28 -5 -24 -48 -77 -143 -177
-10 -11 -47 -59 -80 -107 -68 -95 -117 -148 -137 -148 -8 0 -12 -9 -10 -25 2
-20 -5 -29 -30 -41 -34 -16 -75 -50 -75 -62 0 -4 -15 -19 -33 -34 l-33 -26 3
61 c5 112 79 335 140 424 86 127 217 254 295 286 26 11 48 23 48 27 0 9 88 65
154 100 28 14 60 31 71 37 30 16 89 42 98 42 4 1 7 -6 7 -14z"/>
<path d="M1400 2080 c0 -5 5 -10 11 -10 5 0 7 5 4 10 -3 6 -8 10 -11 10 -2 0
-4 -4 -4 -10z"/>
<path d="M4160 2040 c-8 -5 -11 -12 -7 -16 4 -4 15 0 24 9 18 18 8 23 -17 7z"/>
<path d="M1237 913 c-4 -3 -7 -13 -7 -21 0 -18 13 -7 16 13 2 17 1 18 -9 8z"/>
<path d="M5367 4146 c-4 -10 -5 -21 -2 -24 9 -9 17 6 13 25 -3 17 -4 17 -11
-1z"/>
<path d="M5272 3928 c-14 -14 -16 -28 -3 -28 9 0 24 30 18 36 -2 2 -9 -2 -15
-8z"/>
<path d="M3857 731 c-4 -17 -3 -21 5 -13 5 5 8 16 6 23 -3 8 -7 3 -11 -10z"/>
</g>
</svg>
